<svg aria-hidden="true" style="position: absolute; width: 0; height: 0; overflow: hidden;" version="1.1" xmlns="http://www.w3.org/2000/svg" xmlns:xlink="http://www.w3.org/1999/xlink">
    <defs>
        <symbol id="icon-facebook" viewBox="0 0 15 32">
            <path d="M14.988 0.013v5.147s-3.794-0.375-4.748 1.074c-0.52 0.8-0.211 3.123-0.257 4.798h5.034c-0.425 1.949-0.73 3.273-1.043 4.973h-4.018v15.992h-6.974v-15.93h-2.967v-5.035h2.935c0.15-3.686 0.206-7.334 2.035-9.183 2.056-2.086 4.021-1.837 10.004-1.837z"></path>
        </symbol>

        <symbol id="icon-instagram" viewBox="0 0 32 32">
            <path d="M27.969 31.997h-23.988c-2.208 0-3.998-1.79-3.998-3.998v0-23.988c0-2.208 1.79-3.998 3.998-3.998v0h23.988c2.208 0 3.998 1.79 3.998 3.998v0 23.988c0 2.208-1.79 3.998-3.998 3.998v0zM15.975 9.808c-0 0-0.001 0-0.001 0-2.478 0-4.616 1.457-5.605 3.56l-0.016 0.038c-0.008 0.024-0.017 0.045-0.028 0.064l0.001-0.001c-0.038 0.082-0.092 0.219-0.142 0.357l-0.018 0.056c-0.024 0.062-0.050 0.125-0.071 0.187-0.046 0.137-0.084 0.287-0.125 0.425-0.018 0.062-0.037 0.137-0.052 0.2-0.032 0.15-0.055 0.3-0.076 0.462-0.009 0.062-0.021 0.125-0.029 0.187-0.023 0.198-0.036 0.428-0.036 0.661v0.001c0 3.422 2.774 6.197 6.197 6.197s6.197-2.774 6.197-6.197v0c-0.001-0.234-0.014-0.464-0.039-0.691l0.003 0.029c-0.008-0.062-0.020-0.125-0.029-0.187-0.023-0.187-0.050-0.344-0.083-0.499l0.007 0.037c-0.026-0.108-0.044-0.175-0.063-0.242l0.010 0.042c-0.035-0.137-0.072-0.287-0.125-0.425-0.021-0.062-0.047-0.125-0.071-0.187-0.068-0.194-0.122-0.33-0.18-0.464l0.020 0.052c-0.011-0.018-0.020-0.039-0.027-0.060l-0.001-0.002c-1.004-2.141-3.14-3.597-5.617-3.598h-0zM28.369 5.21c0-0.001 0-0.002 0-0.003 0-0.882-0.715-1.597-1.597-1.597-0.001 0-0.002 0-0.003 0h-3.198c-0.001 0-0.002 0-0.003 0-0.882 0-1.597 0.715-1.597 1.597 0 0.001 0 0.002 0 0.003v-0 3.198c0 0.001 0 0.002 0 0.002 0 0.882 0.715 1.597 1.597 1.597 0.001 0 0.002 0 0.003 0h3.198c0.001 0 0.002 0 0.003 0 0.882 0 1.597-0.715 1.597-1.597 0-0.001 0-0.002 0-0.003v0-3.198zM28.369 13.406h-2.949c0.222 0.778 0.35 1.671 0.35 2.594 0 5.41-4.385 9.795-9.795 9.795s-9.795-4.385-9.795-9.795c0-0.923 0.128-1.817 0.366-2.663l-0.017 0.069h-2.949v13.393c0 0.001 0 0.002 0 0.003 0 0.882 0.715 1.597 1.597 1.597 0.001 0 0.002 0 0.003 0h21.589c0.001 0 0.002 0 0.003 0 0.882 0 1.597-0.715 1.597-1.597 0-0.001 0-0.002 0-0.003v0-13.393z"></path>
        </symbol>

        <symbol id="icon-pinterest" viewBox="0 0 24 32">
            <path d="M10.177 20.777c-0.261 1.050-0.525 2.136-0.797 3.198-0.268 1.217-0.576 2.249-0.951 3.25l0.054-0.163c-0.652 1.69-1.513 3.149-2.574 4.438l0.022-0.027c-0.718 0.825-0.566 0.5-0.782 0.45-0.165-0.037-0.179-0.2-0.211-0.425-0.055-0.61-0.086-1.319-0.086-2.036 0-0.752 0.034-1.497 0.102-2.231l-0.007 0.094c0.115-1.598 0.376-3.081 0.774-4.507l-0.038 0.16c0.605-2.574 1.182-5.098 1.793-7.696 0.063-0.162 0.104-0.35 0.112-0.546l0-0.004c-0.257-0.619-0.446-1.337-0.532-2.087l-0.003-0.037c-0.026-0.223-0.041-0.481-0.041-0.742 0-0.602 0.078-1.186 0.225-1.742l-0.011 0.047c0.268-1.324 1.155-2.396 2.34-2.913l0.026-0.010c0.263-0.091 0.565-0.144 0.88-0.144 0.471 0 0.914 0.118 1.302 0.326l-0.015-0.007c0.556 0.337 0.953 0.887 1.081 1.535l0.002 0.015c0.052 0.286 0.082 0.614 0.082 0.95 0 0.502-0.066 0.988-0.19 1.45l0.009-0.039c-0.334 1.524-0.772 2.674-1.171 4.135-0.181 0.472-0.286 1.018-0.286 1.589 0 0.237 0.018 0.47 0.053 0.698l-0.003-0.025c0.148 0.664 0.528 1.221 1.050 1.594l0.008 0.005c0.503 0.364 1.133 0.582 1.813 0.582 0.076 0 0.152-0.003 0.227-0.008l-0.010 0.001c1.384-0.127 2.572-0.868 3.302-1.946l0.010-0.016c1.169-1.641 1.928-3.648 2.090-5.821l0.002-0.039c0.068-0.527 0.107-1.137 0.107-1.757 0-0.265-0.007-0.529-0.021-0.791l0.002 0.037c-0.059-1.479-0.579-2.827-1.42-3.914l0.012 0.016c-0.803-0.985-1.87-1.728-3.092-2.123l-0.047-0.013c-0.886-0.274-1.904-0.432-2.958-0.432-0.609 0-1.205 0.053-1.785 0.153l0.062-0.009c-2.694 0.411-4.927 2.074-6.119 4.365l-0.022 0.046c-0.659 1.208-1.046 2.646-1.046 4.175 0 0.030 0 0.060 0 0.091l-0-0.005c-0.002 0.052-0.003 0.113-0.003 0.174 0 1.094 0.317 2.113 0.863 2.972l-0.013-0.023c0.166 0.25 0.41 0.462 0.572 0.75 0.040 0.156 0.064 0.334 0.064 0.519 0 0.338-0.078 0.659-0.218 0.943l0.006-0.013c-0.137 0.537-0.152 1.262-0.772 1.274-0.302-0.034-0.573-0.141-0.803-0.303l0.005 0.004c-1.636-1.003-2.773-2.684-3.023-4.641l-0.003-0.032c-0.118-0.607-0.185-1.304-0.185-2.018s0.067-1.411 0.196-2.087l-0.011 0.069c0.684-3.298 2.698-6.029 5.444-7.654l0.054-0.029c1.404-0.838 3.053-1.429 4.814-1.667l0.067-0.007c0.59-0.089 1.283-0.147 1.988-0.162l0.018-0c0.171-0.009 0.371-0.014 0.573-0.014 1.748 0 3.409 0.373 4.908 1.044l-0.076-0.030c1.462 0.656 2.701 1.563 3.715 2.677l0.008 0.009c1.044 1.139 1.835 2.527 2.274 4.064l0.018 0.072c0.292 0.85 0.473 1.83 0.499 2.848l0 0.013c-0.047 1.077-0.185 2.093-0.407 3.077l0.022-0.116c-0.421 3.338-2.202 6.193-4.761 8.035l-0.035 0.024c-1.324 0.865-2.946 1.38-4.687 1.38-0.109 0-0.218-0.002-0.326-0.006l0.016 0c-0.918-0.057-1.763-0.319-2.506-0.74l0.029 0.015c-0.691-0.365-1.25-0.896-1.638-1.543l-0.010-0.019z"></path>
        </symbol>

        <symbol id="icon-twitter" viewBox="0 0 39 32">
            <path d="M26.818 0.013c0.121-0.006 0.262-0.010 0.404-0.010 2.351 0 4.474 0.977 5.984 2.547l0.003 0.003c1.553-0.258 2.945-0.747 4.213-1.436l-0.070 0.035 1.005-0.554c-0.51 1.537-1.418 2.828-2.602 3.791l-0.015 0.012c-0.257 0.244-0.549 0.454-0.867 0.621l-0.021 0.010v0.015c1.693-0.182 3.242-0.617 4.671-1.27l-0.094 0.038v0.015c-0.765 1.212-1.674 2.248-2.721 3.124l-0.021 0.017c-0.42 0.339-0.842 0.677-1.262 1.001 0.012 0.28 0.019 0.609 0.019 0.939 0 1.508-0.143 2.982-0.416 4.411l0.023-0.146c-2.020 9.068-7.372 15.227-15.841 17.875-2.010 0.598-4.319 0.941-6.708 0.941-1.675 0-3.311-0.169-4.891-0.491l0.157 0.027c-1.847-0.445-3.431-0.979-4.952-1.631l0.2 0.076c-0.904-0.398-1.655-0.794-2.377-1.235l0.087 0.050c-0.237-0.139-0.473-0.293-0.71-0.431 0.54 0.073 1.163 0.114 1.797 0.114 0.277 0 0.552-0.008 0.824-0.024l-0.038 0.002c0.796-0.123 1.575-0.092 2.309-0.246 1.826-0.36 3.451-0.968 4.935-1.798l-0.084 0.043c0.838-0.395 1.559-0.874 2.201-1.44l-0.010 0.009c-0.864-0.003-1.691-0.161-2.455-0.447l0.049 0.016c-2.433-0.84-4.309-2.731-5.113-5.116l-0.017-0.057c0.433 0.083 0.931 0.131 1.44 0.131 0.773 0 1.52-0.11 2.227-0.314l-0.056 0.014c-1.005-0.139-1.902-0.516-2.66-1.074l0.016 0.011c-2.297-1.372-3.811-3.846-3.811-6.673 0-0.084 0.001-0.168 0.004-0.252l-0 0.012c0.277 0.123 0.553 0.262 0.828 0.385 0.486 0.204 1.055 0.37 1.647 0.471l0.047 0.007c0.218 0.079 0.47 0.124 0.732 0.124 0.132 0 0.261-0.011 0.387-0.034l-0.013 0.002h-0.040c-0.406-0.462-1.070-0.785-1.48-1.293-1.265-1.444-2.036-3.347-2.036-5.431 0-0.673 0.081-1.328 0.233-1.954l-0.012 0.056c0.223-0.803 0.519-1.503 0.892-2.154l-0.024 0.045c0.014 0 0.026 0.015 0.040 0.015 0.216 0.319 0.457 0.597 0.726 0.844l0.004 0.003c0.716 0.862 1.505 1.62 2.372 2.284l0.035 0.026c2.753 2.254 6.079 3.917 9.724 4.742l0.159 0.030c1.085 0.287 2.333 0.46 3.619 0.477l0.011 0c-0.142-0.549-0.224-1.178-0.224-1.827 0-0.703 0.096-1.383 0.275-2.029l-0.013 0.053c0.612-2.454 2.303-4.421 4.526-5.399l0.051-0.020c0.512-0.226 1.113-0.417 1.737-0.544l0.058-0.010c0.326-0.046 0.656-0.077 0.984-0.123z"></path>
        </symbol>
    </defs>
</svg>
